<svg xmlns="http://www.w3.org/2000/svg" viewBox="0 0 172.59 74.791">
	<clipPath id="a"><path d="M0 0h595.28v841.89H0Z" /></clipPath>
	<path fill="#2c55a2" d="M86.297 74.791H0v-5.753h86.297ZM172.59 5.753H86.293V0h86.297z" />
	<g clip-path="url(#a)" transform="matrix(1.3333 0 0 -1.3333 -310.55 375.85)">
		<path
			d="M246.73 262.61c5.377 0 9.677-4.402 9.677-9.87 0-5.468-4.3-9.816-9.677-9.816-5.376 0-9.65 4.348-9.65 9.816 0 5.468 4.274 9.87 9.65 9.87m0-16.952c3.844 0 6.99 3.172 6.99 7.082 0 3.882-3.146 7.136-6.99 7.136-3.817 0-6.962-3.254-6.962-7.136 0-3.91 3.145-7.082 6.962-7.082m9.1-1.888 8.253 18.401c.08.164.322.301.457.301h.268c.135 0 .376-.137.457-.301l8.199-18.401c.162-.355-.053-.711-.457-.711h-1.693c-.323 0-.511.164-.618.41l-1.667 3.746h-8.791c-.537-1.258-1.102-2.488-1.639-3.746a.677.677 0 0 0-.618-.41h-1.694c-.403 0-.618.356-.457.711m12.177 5.797-3.306 7.491h-.135l-3.279-7.491zm2.843 12.243c-.108.383.107.656.484.656h1.801c.215 0 .43-.191.483-.383l3.253-12.549h.108l4.381 12.905c.054.164.242.301.457.301h.484c.215 0 .404-.137.457-.301l4.436-12.905h.107l3.199 12.549c.054.192.269.383.484.383h1.801c.376 0 .591-.273.484-.656l-5.081-18.374a.518.518 0 0 0-.483-.383h-.431c-.188 0-.403.137-.457.301l-4.731 13.589h-.134l-4.651-13.589c-.053-.164-.269-.301-.457-.301h-.43a.52.52 0 0 0-.484.383zm-25.68 3.59a.646.646 0 0 0-.646-.645h-1.72a.645.645 0 0 0-.645.645v1.721c0 .356.289.645.645.645h1.72a.646.646 0 0 0 .646-.645zm6.15 0a.645.645 0 0 0-.645-.645h-1.721a.645.645 0 0 0-.645.645v1.721c0 .356.289.645.645.645h1.721a.645.645 0 0 0 .645-.645zm53.39-2.87a2.213 2.213 0 0 0 2.217-2.224 2.202 2.202 0 0 0-2.217-2.211 2.197 2.197 0 0 0-2.212 2.211c0 1.232.979 2.224 2.212 2.224m-1.252.795c0 .24.192.431.432.431a.433.433 0 0 0 .437-.431.439.439 0 0 0-.437-.438.435.435 0 0 0-.432.438m1.252-4.245c.677 0 1.232.555 1.232 1.226 0 .678-.555 1.239-1.232 1.239a1.24 1.24 0 0 1-1.227-1.239c0-.671.554-1.226 1.227-1.226m.381 4.245c0 .24.192.431.432.431a.434.434 0 1 0 0-.869.435.435 0 0 0-.432.438m2.339-4.585.29.511c.049.081.166.068.209.037.025-.013.468-.339.874-.339.247 0 .426.155.426.37 0 .259-.216.456-.635.622-.529.21-1.194.623-1.194 1.362 0 .609.473 1.226 1.422 1.226.641 0 1.133-.327 1.319-.462.073-.043.061-.155.037-.198l-.315-.474c-.043-.067-.154-.123-.209-.08-.055.031-.505.37-.881.37-.222 0-.389-.148-.389-.314 0-.228.186-.401.672-.598.481-.191 1.245-.567 1.245-1.404 0-.635-.549-1.276-1.454-1.276-.801 0-1.245.333-1.386.475-.061.061-.08.086-.031.172m4.17 2.83h-.882a.118.118 0 0 0-.116.117v.672c0 .061.05.117.116.117h2.736a.118.118 0 0 0 .117-.117v-.672a.118.118 0 0 0-.117-.117h-.881v-3.29a.121.121 0 0 0-.117-.117h-.739a.121.121 0 0 0-.117.117zm2.59.78c0 .061.049.117.117.117h2.551a.118.118 0 0 0 .117-.117v-.671a.118.118 0 0 0-.117-.118h-1.707v-.763h1.404a.121.121 0 0 0 .117-.118v-.671a.116.116 0 0 0-.117-.117h-1.404v-.832h1.707a.117.117 0 0 0 .117-.117v-.672a.117.117 0 0 0-.117-.116h-2.551a.116.116 0 0 0-.117.116zm3.61 0c0 .061.049.117.117.117h1.842a1.34 1.34 0 0 0 1.343-1.331c0-.566-.376-1.022-.912-1.238l.844-1.565c.043-.079 0-.178-.105-.178h-.819c-.049 0-.087.03-.098.055l-.82 1.632h-.425v-1.571a.121.121 0 0 0-.117-.116h-.733a.116.116 0 0 0-.117.116zm1.879-1.725c.252 0 .468.234.468.493a.472.472 0 0 1-.468.468h-.912v-.961zm2.251 1.725c0 .061.049.117.118.117h1.841a1.34 1.34 0 0 0 1.343-1.331c0-.566-.376-1.022-.911-1.238l.844-1.565c.042-.079 0-.178-.106-.178h-.819a.111.111 0 0 0-.098.055l-.82 1.632h-.425v-1.571a.12.12 0 0 0-.117-.116h-.732a.117.117 0 0 0-.118.116zm1.879-1.725c.253 0 .468.234.468.493a.471.471 0 0 1-.468.468h-.912v-.961zm2.201 1.725c0 .061.049.117.117.117h2.55a.117.117 0 0 0 .118-.117v-.671a.118.118 0 0 0-.118-.118h-1.706v-.763h1.405a.122.122 0 0 0 .117-.118v-.671a.117.117 0 0 0-.117-.117h-1.405v-.832h1.706a.117.117 0 0 0 .118-.117v-.672a.117.117 0 0 0-.118-.116h-2.55a.116.116 0 0 0-.117.116zm3.61 0c0 .061.055.117.117.117h.739a.123.123 0 0 0 .118-.117v-4.079a.122.122 0 0 0-.118-.116h-.739a.12.12 0 0 0-.117.116zm3.95.18c.616 0 1.072-.191 1.49-.573a.114.114 0 0 0 .007-.172l-.481-.499a.106.106 0 0 0-.154 0c-.227.203-.53.314-.831.314-.697 0-1.207-.579-1.207-1.269 0-.684.517-1.251 1.213-1.251.29 0 .604.105.825.296.044.037.124.037.16-.006l.481-.512c.043-.043.037-.123-.006-.166a2.119 2.119 0 0 0-1.497-.597 2.208 2.208 0 0 0-2.224 2.211 2.22 2.22 0 0 0 2.224 2.224m2.23-.18c0 .061.055.117.117.117h.733a.117.117 0 0 0 .117-.117v-1.552h1.762v1.552c0 .061.049.117.117.117h.733a.122.122 0 0 0 .117-.117v-4.079a.121.121 0 0 0-.117-.116h-.733a.116.116 0 0 0-.117.116v1.621h-1.762v-1.621a.116.116 0 0 0-.117-.116h-.733a.12.12 0 0 0-.117.116zm4.76 0c0 .061.056.117.118.117h.739a.121.121 0 0 0 .117-.117v-4.079a.12.12 0 0 0-.117-.116h-.739a.121.121 0 0 0-.118.116zm1.79-3.61.289.511c.05.081.167.068.21.037.025-.013.468-.339.875-.339.246 0 .425.155.425.37 0 .259-.215.456-.635.622-.529.21-1.195.623-1.195 1.362 0 .609.475 1.226 1.423 1.226.641 0 1.134-.327 1.319-.462.074-.043.061-.155.036-.198l-.314-.474c-.043-.067-.154-.123-.209-.08-.055.031-.505.37-.881.37-.222 0-.388-.148-.388-.314 0-.228.184-.401.671-.598.481-.191 1.244-.567 1.244-1.404 0-.635-.547-1.276-1.453-1.276-.801 0-1.244.333-1.387.475-.061.061-.079.086-.03.172m5.53 3.79c.617 0 1.072-.191 1.491-.573a.113.113 0 0 0 .006-.172l-.48-.499a.105.105 0 0 0-.153 0 1.265 1.265 0 0 1-.833.314c-.696 0-1.208-.579-1.208-1.269 0-.684.518-1.251 1.214-1.251.289 0 .603.105.827.296.042.037.122.037.159-.006l.48-.512c.044-.043.038-.123-.006-.166a2.115 2.115 0 0 0-1.497-.597 2.207 2.207 0 0 0-2.223 2.211c0 1.232.991 2.224 2.223 2.224m2.24-.18c0 .061.055.117.117.117h.733a.117.117 0 0 0 .117-.117v-1.552h1.762v1.552c0 .061.05.117.117.117h.733a.121.121 0 0 0 .117-.117v-4.079a.12.12 0 0 0-.117-.116h-.733a.117.117 0 0 0-.117.116v1.621h-1.762v-1.621a.116.116 0 0 0-.117-.116h-.733a.12.12 0 0 0-.117.116zm4.6 0c0 .061.049.117.117.117h2.55a.117.117 0 0 0 .117-.117v-.671a.117.117 0 0 0-.117-.118h-1.707v-.763h1.405a.122.122 0 0 0 .118-.118v-.671a.117.117 0 0 0-.118-.117h-1.405v-.832h1.707a.116.116 0 0 0 .117-.117v-.672a.116.116 0 0 0-.117-.116h-2.55a.116.116 0 0 0-.117.116zm-47.18-11.58 1.929 4.147a.125.125 0 0 0 .104.067h.062a.128.128 0 0 0 .105-.067l1.928-4.147c.037-.08-.012-.16-.105-.16h-.684c-.111 0-.16.037-.215.154l-.222.487h-1.676l-.222-.493a.228.228 0 0 0-.222-.148h-.677c-.093 0-.142.08-.105.16m2.532 1.319-.468 1.017h-.006l-.462-1.017zm2.108 2.681c0 .08.061.148.148.148h.721a.15.15 0 0 0 .148-.148v-1.62l1.367 1.706a.186.186 0 0 0 .117.062h.777c.117 0 .178-.135.111-.228l-1.442-1.805 1.571-2.045a.145.145 0 0 0-.117-.229h-.851c-.042 0-.098.026-.11.043l-1.423 1.935v-1.835a.15.15 0 0 0-.148-.148h-.721a.145.145 0 0 0-.148.148zm3.77-4 1.928 4.147a.126.126 0 0 0 .105.067h.061a.128.128 0 0 0 .105-.067l1.928-4.147c.037-.08-.012-.16-.105-.16h-.684c-.111 0-.16.037-.215.154l-.221.487h-1.676l-.223-.493a.228.228 0 0 0-.221-.148h-.678c-.093 0-.142.08-.104.16m2.531 1.319-.468 1.017h-.006l-.462-1.017zm1.919 2.711c0 .061.049.117.111.117h1.503a2.162 2.162 0 0 0 2.162-2.15 2.164 2.164 0 0 0-2.162-2.162h-1.503c-.062 0-.111.055-.111.116zm1.552-3.284c.697 0 1.202.549 1.202 1.251 0 .696-.505 1.244-1.202 1.244h-.59v-2.495zm2.978 3.284c0 .061.05.117.117.117h2.551a.117.117 0 0 0 .117-.117v-.672a.117.117 0 0 0-.117-.117h-1.706v-.764h1.404a.12.12 0 0 0 .117-.117v-.671a.116.116 0 0 0-.117-.117h-1.404v-.832h1.706a.116.116 0 0 0 .117-.117v-.672a.116.116 0 0 0-.117-.116h-2.551a.117.117 0 0 0-.117.116zm4.04.08c.006.056.063.099.111.099h.099c.031 0 .087-.025.105-.062l1.43-2.661h.012l1.429 2.661c.018.037.074.062.104.062h.099c.049 0 .105-.043.111-.099l.696-4.14c.012-.08-.043-.135-.117-.135h-.727c-.056 0-.111.049-.118.099l-.277 1.903h-.011l-1.036-1.996a.144.144 0 0 0-.104-.068h-.111a.132.132 0 0 0-.105.068l-1.042 1.996h-.012l-.271-1.903a.12.12 0 0 0-.117-.099h-.727c-.073 0-.129.055-.117.135zm4.98-.08c0 .061.055.117.117.117h.738a.12.12 0 0 0 .117-.117v-4.079a.12.12 0 0 0-.117-.116h-.738a.12.12 0 0 0-.117.116zm2.03 0c0 .061.049.117.117.117h2.55a.118.118 0 0 0 .118-.117v-.672a.118.118 0 0 0-.118-.117h-1.705v-.764h1.404a.121.121 0 0 0 .117-.117v-.671a.117.117 0 0 0-.117-.117h-1.404v-.832h1.705a.117.117 0 0 0 .118-.117v-.672a.117.117 0 0 0-.118-.116h-2.55a.116.116 0 0 0-.117.116zm4.98 0c0 .061.049.117.111.117h1.504a2.162 2.162 0 0 0 2.161-2.15 2.164 2.164 0 0 0-2.161-2.162h-1.504c-.062 0-.111.055-.111.116zm1.552-3.284c.696 0 1.202.549 1.202 1.251 0 .696-.506 1.244-1.202 1.244h-.592v-2.495zm2.978 3.284c0 .061.05.117.117.117h2.551a.117.117 0 0 0 .117-.117v-.672a.117.117 0 0 0-.117-.117h-1.707v-.764h1.405a.121.121 0 0 0 .117-.117v-.671a.117.117 0 0 0-.117-.117h-1.405v-.832h1.707a.116.116 0 0 0 .117-.117v-.672a.116.116 0 0 0-.117-.116h-2.551a.117.117 0 0 0-.117.116zm3.61 0c0 .061.05.117.118.117h1.842a1.34 1.34 0 0 0 1.343-1.331c0-.566-.377-1.022-.912-1.238l.844-1.565c.043-.08 0-.178-.105-.178h-.819a.114.114 0 0 0-.099.055l-.819 1.632h-.426v-1.571a.12.12 0 0 0-.116-.116h-.733a.117.117 0 0 0-.118.116zm1.879-1.725c.253 0 .468.234.468.493a.472.472 0 0 1-.468.468h-.912v-.961zm-47.699-5.855c-.025.086.025.148.11.148h.722c.049 0 .098-.043.111-.086l.529-2.089h.025l.955 2.169a.117.117 0 0 0 .105.068h.111c.055 0 .092-.031.104-.068l.955-2.169h.025l.529 2.089c.013.043.062.086.111.086h.72c.088 0 .137-.062.112-.148l-1.164-4.14a.119.119 0 0 0-.111-.086h-.099a.124.124 0 0 0-.104.068l-1.127 2.519h-.019l-1.122-2.519a.124.124 0 0 0-.104-.068h-.099a.116.116 0 0 0-.11.086zm5.89.03c0 .061.055.117.116.117h.74a.121.121 0 0 0 .117-.117v-4.078a.12.12 0 0 0-.117-.117h-.74a.12.12 0 0 0-.116.117zm1.78-3.61.289.512c.05.08.166.067.21.037.024-.013.468-.34.875-.34.246 0 .425.154.425.37 0 .259-.216.456-.635.622-.529.21-1.195.622-1.195 1.362 0 .61.474 1.226 1.423 1.226.641 0 1.134-.327 1.319-.462.074-.043.061-.154.036-.197l-.313-.474c-.044-.068-.155-.124-.21-.081-.056.031-.505.37-.881.37-.222 0-.389-.148-.389-.314 0-.228.186-.401.672-.598.481-.191 1.244-.567 1.244-1.405 0-.634-.548-1.275-1.453-1.275-.801 0-1.245.333-1.386.475-.062.062-.081.086-.031.172m3.38 0 .289.512c.05.08.167.067.209.037.025-.013.469-.34.876-.34.246 0 .424.154.424.37 0 .259-.215.456-.634.622-.53.21-1.194.622-1.194 1.362 0 .61.473 1.226 1.422 1.226.641 0 1.134-.327 1.319-.462.073-.043.061-.154.036-.197l-.314-.474c-.042-.068-.154-.124-.209-.081-.055.031-.505.37-.882.37-.221 0-.387-.148-.387-.314 0-.228.185-.401.671-.598.48-.191 1.245-.567 1.245-1.405 0-.634-.549-1.275-1.454-1.275-.801 0-1.245.333-1.386.475-.061.062-.081.086-.031.172m3.62 3.61c0 .061.049.117.117.117h2.551a.118.118 0 0 0 .117-.117v-.672a.117.117 0 0 0-.117-.117h-1.707v-.763h1.405a.121.121 0 0 0 .117-.118v-.671a.116.116 0 0 0-.117-.117h-1.405v-.832h1.707a.117.117 0 0 0 .117-.117v-.671a.117.117 0 0 0-.117-.117h-2.551a.116.116 0 0 0-.117.117zm3.61.07c0 .062.055.111.116.111h.154l2.459-2.366h.006v2.187c0 .062.049.118.117.118h.739a.121.121 0 0 0 .117-.118v-4.146c0-.061-.055-.111-.117-.111h-.098a.19.19 0 0 0-.081.031l-2.433 2.446h-.006v-2.298a.116.116 0 0 0-.117-.117h-.733a.12.12 0 0 0-.117.117zm4.52-3.68.29.512c.049.08.165.067.209.037.025-.013.468-.34.875-.34.246 0 .425.154.425.37 0 .259-.215.456-.635.622-.529.21-1.195.622-1.195 1.362 0 .61.474 1.226 1.423 1.226.641 0 1.134-.327 1.319-.462.074-.043.061-.154.037-.197l-.315-.474c-.043-.068-.153-.124-.209-.081-.055.031-.506.37-.881.37-.222 0-.389-.148-.389-.314 0-.228.186-.401.672-.598.481-.191 1.245-.567 1.245-1.405 0-.634-.548-1.275-1.454-1.275-.802 0-1.244.333-1.386.475-.062.062-.08.086-.031.172m5.53 3.79c.616 0 1.072-.191 1.491-.573a.115.115 0 0 0 .005-.173l-.48-.499a.108.108 0 0 0-.154 0c-.227.204-.53.314-.831.314-.696 0-1.208-.579-1.208-1.269 0-.683.518-1.25 1.213-1.25.291 0 .605.104.826.296.043.037.124.037.16-.007l.481-.511c.043-.043.037-.123-.007-.167a2.113 2.113 0 0 0-1.496-.597 2.208 2.208 0 0 0-2.224 2.212 2.22 2.22 0 0 0 2.224 2.224m2.24-.18c0 .061.056.117.117.117h.733a.117.117 0 0 0 .117-.117v-1.552h1.762v1.552c0 .061.049.117.118.117h.733a.122.122 0 0 0 .117-.117v-4.078a.121.121 0 0 0-.117-.117h-.733a.117.117 0 0 0-.118.117v1.62h-1.762v-1.62a.116.116 0 0 0-.117-.117h-.733a.121.121 0 0 0-.117.117zm4.2-4.04 1.928 4.147a.128.128 0 0 0 .105.067h.062a.126.126 0 0 0 .104-.067l1.929-4.147c.036-.079-.013-.16-.105-.16h-.684c-.112 0-.16.037-.216.154l-.222.486h-1.675l-.222-.492a.23.23 0 0 0-.222-.148h-.678c-.092 0-.141.081-.104.16m2.532 1.319-.468 1.016h-.006l-.462-1.016zm2.098 2.721c0 .061.049.117.117.117h2.552a.117.117 0 0 0 .116-.117v-.672a.116.116 0 0 0-.116-.117h-1.708v-.887h1.404a.12.12 0 0 0 .118-.116v-.673a.12.12 0 0 0-.118-.116h-1.404v-1.497a.12.12 0 0 0-.117-.117h-.727a.116.116 0 0 0-.117.117zm4.22-.79h-.881a.116.116 0 0 0-.117.117v.672c0 .061.049.117.117.117h2.735a.117.117 0 0 0 .117-.117v-.672a.116.116 0 0 0-.117-.117h-.88v-3.29a.121.121 0 0 0-.118-.117h-.738a.12.12 0 0 0-.118.117zm2.51.79c0 .061.05.117.117.117h2.551a.118.118 0 0 0 .117-.117v-.672a.117.117 0 0 0-.117-.117h-1.707v-.763h1.404a.123.123 0 0 0 .119-.118v-.671a.118.118 0 0 0-.119-.117h-1.404v-.832h1.707a.117.117 0 0 0 .117-.117v-.671a.117.117 0 0 0-.117-.117h-2.551a.117.117 0 0 0-.117.117zm3.61.07c0 .062.055.111.118.111h.153l2.458-2.366h.006v2.187c0 .062.05.118.117.118h.739a.121.121 0 0 0 .117-.118v-4.146c0-.061-.055-.111-.117-.111h-.097a.19.19 0 0 0-.081.031l-2.434 2.446h-.005v-2.298a.117.117 0 0 0-.117-.117h-.734a.12.12 0 0 0-.117.117z"
		/>
	</g>
</svg>
