<svg xmlns="http://www.w3.org/2000/svg" viewBox="0 0 950.8 525.6">
	<path
		d="M613.2 10.3h-32.6v511H606l1.5-96.4c27.4 59.4 89 100.7 160 100.7 102.9 0 183.3-82.6 183.3-185.5s-80.4-186.2-183.3-186.2c-68.8 0-127.5 40.6-154.4 97.8V10.3ZM765.3 185c84.1 0 152.9 67.4 152.9 155.1 0 87.7-68.8 154.4-152.9 154.4-84.1 0-152.9-66.7-152.9-154.4S681.3 185 765.3 185zM504.1 521.3v-19c-42.5-3.7-48.3-8.1-48.3-56.4V317.8c0-87.8-41.7-125.2-101-125.2-39.5 0-78.3 27.1-104.7 53.4V0c-28.5 8.8-72.5 20.5-107.6 25.6v17.6c48.3 4.4 49.8 7.3 49.8 53.4v349.2c0 48.3-5.9 52.7-49.8 56.4l-.7 19h155.9v-19c-43.9-4.4-47.6-9.5-47.6-56.4V271.7c20.5-23.4 48.3-37.3 76.1-37.3 49 0 71.7 30 71.7 90v121.5c0 47.6-5.9 52-48.3 56.4v19z"
	/>
	<path
		fill="#e84e0f"
		d="M63.4 521.3V197.1h-56v324.2ZM35 88.6c22.1 0 35.7-16.2 35.7-35 0-20.1-14.3-35.7-35-35.7C14.3 17.9 0 33.5 0 53.6c0 18.8 13.6 35 34.4 35z"
	/>
</svg>
