<svg xmlns="http://www.w3.org/2000/svg" viewBox="0 0 731.1 91.2">
	<path
		fill="#232871"
		d="M0 19.5v71.4h13l.1-39.9h49.4V39.9H13.1L13 11.2h56V0H19.5ZM268.6 0h-49.5l-19.4 19.5v71.4h12.9l.1-39.9h49.4V39.9h-49.4l-.1-28.7h56zM160.1 81.1 141.5.1h-14.9l-18.6 81L89.4.1H75.6l23 90.8h18.1c2.4-11 14-56.1 17.4-74 2 10 17.1 72.9 17.4 74h18.1l23-90.8h-13.8Zm158.9-39c-9.3 0-15.8-7.1-15.8-16.9 0-9.8 6.5-16.9 15.8-16.9s15.8 7.1 15.8 16.9c0 9.8-6.5 16.9-15.8 16.9zm0-3.8c6.9 0 11.6-5.5 11.6-13.1s-4.7-13.1-11.6-13.1c-6.9 0-11.6 5.5-11.6 13.1S312 38.3 319 38.3zM314.6 0c1.5 0 2.5 1 2.5 2.5 0 1.4-1 2.4-2.5 2.4-1.4 0-2.5-1-2.5-2.4.1-1.5 1.1-2.5 2.5-2.5Zm8.7 0c1.4 0 2.5 1 2.5 2.5 0 1.4-1 2.4-2.5 2.4-1.4 0-2.5-1-2.5-2.4 0-1.5 1.1-2.5 2.5-2.5zm19.3 33.9c.1 2.8 2.7 4.9 6.7 4.9 3.4 0 5.8-1.5 5.8-3.7 0-3-2.7-3.3-6.3-3.7-5.4-.7-9.7-1.8-9.7-6.8 0-4.4 4-7.3 9.5-7.3s9.5 2.6 9.9 7.6h-4c-.3-2.5-2.6-4.3-5.9-4.3-3.4 0-5.6 1.4-5.6 3.7 0 2.7 2.6 3 6.1 3.4 5.5.7 9.9 1.7 9.9 7.1 0 4.5-4.3 7.3-9.7 7.3-6.3 0-10.6-2.9-10.7-8.2zm22.7-12.7h-4.4v-3.6h4.4v-6.8h3.9v6.8h6.3v3.6h-6.3v14.3c0 2 .7 2.8 2.8 2.8h3.8v3.6h-4.2c-4.6 0-6.3-2-6.3-6.3zm12.4 8.6c0-7.3 4.6-12.4 11.5-12.4s11.3 4.3 11.5 11.5c0 .5 0 1.1-.1 1.7h-18.8v.3c.1 4.6 3 7.8 7.6 7.8 3.4 0 6.1-1.8 6.9-4.9h3.9c-.9 4.8-4.9 8.4-10.5 8.4-7.3-.1-12-5-12-12.4zm18.8-2.5c-.4-4.2-3.2-6.5-7.3-6.5-3.6 0-6.8 2.6-7.2 6.5zm21.1-9.6v3.8h-2c-5.1 0-6.4 4.2-6.4 8.1v12.3h-3.9V17.7h3.4l.5 3.7c1.1-1.8 3-3.7 7.3-3.7zm15.6 0v3.8h-1.9c-5.1 0-6.4 4.2-6.4 8.1v12.3H421V17.7h3.4l.5 3.7c1.1-1.8 3-3.7 7.3-3.7zm2 12.1c0-7.3 4.6-12.4 11.5-12.4s11.3 4.3 11.5 11.5c0 .5 0 1.1-.1 1.7h-18.8v.3c.1 4.6 3 7.8 7.6 7.8 3.4 0 6.1-1.8 6.9-4.9h3.9c-.9 4.8-4.9 8.4-10.5 8.4-7.3-.1-12-5-12-12.4zm18.8-2.5c-.4-4.2-3.2-6.5-7.3-6.5-3.6 0-6.8 2.6-7.2 6.5zm8.2-16.2c0-1.5 1.1-2.5 2.5-2.5s2.5 1 2.5 2.5-1.1 2.5-2.5 2.5-2.5-1-2.5-2.5zm.5 6.6h3.9v24.2h-3.9zm8.3 12.1c0-7.4 4.8-12.4 11.8-12.4 5.9 0 9.7 3.3 10.7 8.6h-4.1c-.7-3.2-3.1-5.2-6.6-5.2-4.6 0-7.8 3.7-7.8 9s3.1 8.9 7.8 8.9c3.5 0 5.8-2 6.6-5.1h4.1c-.9 5.2-4.9 8.5-10.8 8.5-7 0-11.7-4.8-11.7-12.3zm48.7-1.4v13.5h-3.9V28.7c0-5-2.4-7.7-6.6-7.7-4.5 0-7.3 3.4-7.3 8.8v12.1H498V8.7h3.9v13c1.4-2.3 3.9-4.3 8-4.3 5.4 0 9.8 3 9.8 11zm4.8-17.3c0-1.5 1.1-2.5 2.5-2.5s2.5 1 2.5 2.5-1.1 2.5-2.5 2.5-2.5-1-2.5-2.5zm.5 6.6h3.9v24.2H525Zm12.3 16.2c.1 2.8 2.7 4.9 6.7 4.9 3.4 0 5.8-1.5 5.8-3.7 0-3-2.7-3.3-6.3-3.7-5.4-.7-9.7-1.8-9.7-6.8 0-4.4 4-7.3 9.5-7.3s9.5 2.6 9.9 7.6h-4c-.3-2.5-2.6-4.3-5.9-4.3-3.4 0-5.6 1.4-5.6 3.7 0 2.7 2.6 3 6.1 3.4 5.5.7 9.9 1.7 9.9 7.1 0 4.5-4.3 7.3-9.7 7.3-6.3 0-10.6-2.9-10.7-8.2zm19.8-4.1c0-7.4 4.8-12.4 11.8-12.4 5.9 0 9.7 3.3 10.7 8.6h-4.1c-.7-3.2-3.1-5.2-6.6-5.2-4.6 0-7.8 3.7-7.8 9s3.1 8.9 7.8 8.9c3.5 0 5.8-2 6.6-5.1h4.1c-.9 5.2-4.9 8.5-10.8 8.5-7.1 0-11.7-4.8-11.7-12.3zm48.6-1.4v13.5h-3.9V28.7c0-5-2.4-7.7-6.6-7.7-4.5 0-7.3 3.4-7.3 8.8v12.1H584V8.7h3.9v13c1.4-2.3 3.9-4.3 8-4.3 5.4 0 9.8 3 9.8 11zm4.3 1.4c0-7.3 4.6-12.4 11.5-12.4s11.3 4.3 11.5 11.5c0 .5 0 1.1-.1 1.7h-18.8v.3c.1 4.6 3 7.8 7.6 7.8 3.4 0 6.1-1.8 6.9-4.9h3.9c-.9 4.8-4.9 8.4-10.5 8.4-7.2-.1-12-5-12-12.4zm18.8-2.5c-.4-4.2-3.2-6.5-7.3-6.5-3.6 0-6.8 2.6-7.2 6.5zm21.1-9.6v3.8H648c-5.1 0-6.4 4.2-6.4 8.1v12.3h-4V17.7h3.4l.5 3.7c1.1-1.8 3-3.7 7.3-3.7zm-348 40h4.3l7.8 27.9 8.2-27.9h4.2l7.9 27.9 7.8-27.9h4.3l-9.7 33.2h-5.1L324 64.6l-7.5 26.3h-4.9zm47.2 2.4c0-1.5 1.1-2.5 2.5-2.5s2.5 1 2.5 2.5-1.1 2.5-2.5 2.5-2.5-1-2.5-2.5zm.6 6.6h3.9v24.2h-3.9zm12.2 16.2c.1 2.8 2.7 4.9 6.7 4.9 3.4 0 5.8-1.5 5.8-3.7 0-3-2.7-3.3-6.3-3.7-5.4-.7-9.7-1.8-9.7-6.8 0-4.4 4-7.3 9.5-7.3s9.5 2.6 9.9 7.6h-4c-.3-2.5-2.6-4.3-5.9-4.3-3.4 0-5.6 1.4-5.6 3.7 0 2.7 2.6 3 6.1 3.4 5.5.7 9.9 1.7 9.9 7.1 0 4.5-4.3 7.3-9.7 7.3-6.3 0-10.6-2.9-10.7-8.2zm23.6 0c.1 2.8 2.7 4.9 6.7 4.9 3.4 0 5.8-1.5 5.8-3.7 0-3-2.7-3.3-6.3-3.7-5.4-.7-9.7-1.8-9.7-6.8 0-4.4 4-7.3 9.5-7.3s9.5 2.6 9.9 7.6h-4c-.3-2.5-2.6-4.3-5.9-4.3-3.4 0-5.6 1.4-5.6 3.7 0 2.7 2.6 3 6.1 3.4 5.5.7 9.9 1.7 9.9 7.1 0 4.5-4.3 7.3-9.7 7.3-6.3 0-10.6-2.9-10.7-8.2zm19.8-4.1c0-7.3 4.6-12.4 11.5-12.4 6.8 0 11.3 4.3 11.5 11.5 0 .5 0 1.1-.1 1.7h-18.8v.3c.1 4.6 3 7.8 7.6 7.8 3.4 0 6.1-1.8 6.9-4.9h3.9c-.9 4.8-4.9 8.4-10.5 8.4-7.2-.1-12-5-12-12.4zm18.8-2.5c-.4-4.2-3.2-6.5-7.3-6.5-3.6 0-6.8 2.6-7.2 6.5zm30.2 1.1v13.5h-3.9V77.7c0-5-2.3-7.7-6.5-7.7-4.6 0-7.3 3.4-7.3 8.8v12.1h-3.9V66.7h3.4l.5 3.3c1.4-1.8 3.9-3.6 8-3.6 5.4 0 9.7 3 9.7 11zm8 5.5c.1 2.8 2.7 4.9 6.7 4.9 3.4 0 5.8-1.5 5.8-3.7 0-3-2.7-3.3-6.3-3.7-5.4-.7-9.7-1.8-9.7-6.8 0-4.4 4-7.3 9.5-7.3s9.5 2.6 9.9 7.6h-4c-.3-2.5-2.6-4.3-5.9-4.3-3.4 0-5.6 1.4-5.6 3.7 0 2.7 2.6 3 6.1 3.4 5.5.7 9.9 1.7 9.9 7.1 0 4.5-4.3 7.3-9.7 7.3-6.3 0-10.6-2.9-10.7-8.2zm19.8-4.1c0-7.4 4.8-12.4 11.8-12.4 5.9 0 9.7 3.3 10.7 8.6h-4.1c-.7-3.2-3.1-5.2-6.6-5.2-4.6 0-7.8 3.7-7.8 9s3.1 8.9 7.8 8.9c3.5 0 5.8-2 6.6-5.1h4.1c-.9 5.2-4.9 8.5-10.8 8.5-7 0-11.7-4.7-11.7-12.3zm48.4-1.4v13.5h-3.9V77.7c0-5-2.4-7.7-6.6-7.7-4.5 0-7.3 3.4-7.3 8.8v12.1h-3.9V57.7h3.9v13c1.4-2.3 3.9-4.3 8-4.3 5.4 0 9.8 3 9.8 11zm27.6 9.9v3.6H556c-3.2 0-4.3-1.4-4.4-3.7-1.5 2.2-3.9 4-8.1 4-5.3 0-8.9-2.7-8.9-7.1 0-4.8 3.4-7.5 9.7-7.5h7.1v-1.7c0-3.1-2.2-5-6-5-3.4 0-5.7 1.6-6.2 4.1h-3.9c.6-4.7 4.4-7.5 10.2-7.5 6.2 0 9.7 3.1 9.7 8.7v10.6c0 1.3.5 1.6 1.6 1.6h1.3zm-6.7-7.5h-7.5c-3.5 0-5.4 1.3-5.4 4 0 2.4 2 4 5.3 4 4.8 0 7.6-2.8 7.6-6.8zm35.6 7.5v3.6h-4.5c-4.6 0-6.3-2-6.3-6.3V70.3h-9.4v20.6h-3.9V70.3h-4.4v-3.6h4.4V64c0-4.3 1.8-6.3 6.3-6.3h3.7v3.6h-3.5c-1.9 0-2.7.8-2.7 2.7v2.8h9.4V60h3.9v6.8h6.1v3.6H580v14.3c0 2 .7 2.8 2.7 2.8h4.3zm6.3-4.4c.1 2.8 2.7 4.9 6.7 4.9 3.4 0 5.8-1.5 5.8-3.7 0-3-2.7-3.3-6.3-3.7-5.4-.7-9.7-1.8-9.7-6.8 0-4.4 4-7.3 9.5-7.3s9.5 2.6 9.9 7.6h-4c-.3-2.5-2.6-4.3-5.9-4.3-3.4 0-5.6 1.4-5.6 3.7 0 2.7 2.6 3 6.1 3.4 5.5.7 9.9 1.7 9.9 7.1 0 4.5-4.3 7.3-9.7 7.3-6.3 0-10.6-2.9-10.7-8.2zm18.1-16.2h4.4V64c0-4.3 1.8-6.3 6.3-6.3h4.4v3.6h-4.2c-1.9 0-2.7.8-2.7 2.7v2.8h6.8v3.6h-6.8V91h-3.9V70.4h-4.4v-3.7zm17.1 12.1c0-7.3 4.9-12.4 12-12.4s12 5 12 12.4c0 7.3-4.9 12.4-12 12.4-7.1-.1-12-5.1-12-12.4zm20 0c0-5.2-3.2-8.9-8-8.9s-8 3.7-8 8.9 3.2 8.9 8 8.9 8-3.8 8-8.9zm30-1.4v13.5h-3.9V77.7c0-5-2.3-7.7-6.5-7.7-4.6 0-7.3 3.4-7.3 8.8v12.1h-3.9V66.7h3.4l.5 3.3c1.4-1.8 3.9-3.6 8-3.6 5.4 0 9.7 3 9.7 11zm24.1-19.7h3.9v33.2h-3.4l-.5-3.9c-1.6 2.2-4.2 4.2-8.3 4.2-6.7 0-11.6-4.5-11.6-12.4 0-7.4 4.9-12.4 11.6-12.4 4.1 0 6.8 1.7 8.3 4zm0 21.2c0-5.3-3.2-9-8-9s-8 3.7-8 8.9c0 5.3 3.2 8.9 8 8.9s8-3.7 8-8.8zm12.1 4c.1 2.8 2.7 4.9 6.7 4.9 3.4 0 5.8-1.5 5.8-3.7 0-3-2.7-3.3-6.3-3.7-5.4-.7-9.7-1.8-9.7-6.8 0-4.4 4-7.3 9.5-7.3s9.5 2.6 9.9 7.6h-4c-.3-2.5-2.6-4.3-5.9-4.3-3.4 0-5.6 1.4-5.6 3.7 0 2.7 2.6 3 6.1 3.4 5.5.7 9.9 1.7 9.9 7.1 0 4.5-4.3 7.3-9.7 7.3-6.3 0-10.6-2.9-10.7-8.2z"
	/>
</svg>
